# xmcd
#
# Track frame offsets: 
#        150
#        21950
#        57860
#        91746
#        111646
#        131221
#        161725
#        183984
#        211072
#        233229
#
# Disc length: 3352 seconds
#
# Revision: 1
# Processed by: cddbd v1.5.2PL0 Copyright (c) Steve Scherf et al.
# Submitted via: ExactAudioCopy v1.0b3
#
DISCID=880d160a
DTITLE=Hundred Seventy Split - HSS
DYEAR=2014
DGENRE=Bluesrock
TTITLE0=Pork Pie Hat
TTITLE1=I Never Saw It Coming
TTITLE2=Gonna Dance On Your Tombstone
TTITLE3=Let Me Go
TTITLE4=Columbus Stockdale Blues
TTITLE5=The Sound Of Goodbye
TTITLE6=The Devil To Pay
TTITLE7=What The Devil Loves
TTITLE8=The Devil To Pay (Reprise)
TTITLE9=King Of The Blues
EXTD=
EXTT0=
EXTT1=
EXTT2=
EXTT3=
EXTT4=
EXTT5=
EXTT6=
EXTT7=
EXTT8=
EXTT9=
PLAYORDER=
